<?xml version="1.0" standalone="no"?>
<!DOCTYPE svg PUBLIC "-//W3C//DTD SVG 20010904//EN"
 "http://www.w3.org/TR/2001/REC-SVG-20010904/DTD/svg10.dtd">
<svg version="1.0" xmlns="http://www.w3.org/2000/svg"
 width="346.000000pt" height="368.000000pt" viewBox="0 0 346.000000 368.000000"
 preserveAspectRatio="xMidYMid meet">
<metadata>
Created by potrace 1.16, written by Peter Selinger 2001-2019
</metadata>
<g transform="translate(0.000000,368.000000) scale(0.100000,-0.100000)"
fill="#000000" stroke="none">
<path d="M1645 3558 c-16 -6 -42 -19 -57 -29 -14 -11 -35 -19 -45 -19 -11 0
-28 -7 -39 -15 -10 -8 -27 -15 -37 -15 -29 0 -128 -100 -153 -155 -19 -40 -24
-67 -24 -135 0 -93 16 -140 64 -197 l27 -32 -23 -14 c-13 -7 -49 -29 -81 -48
-34 -19 -98 -75 -151 -130 -108 -112 -175 -228 -207 -362 -11 -45 -33 -109
-50 -142 -32 -67 -49 -142 -49 -219 0 -53 7 -70 53 -134 34 -48 46 -126 26
-174 -7 -18 -26 -52 -42 -76 -70 -104 -105 -258 -86 -387 11 -77 51 -185 86
-233 43 -57 75 -141 81 -209 6 -73 23 -91 53 -54 l18 22 12 -45 c6 -25 35 -85
64 -135 29 -49 59 -111 67 -137 10 -37 18 -49 33 -49 15 0 24 12 35 47 8 27
17 48 20 48 3 0 13 -20 23 -44 10 -24 39 -67 64 -95 36 -40 49 -49 63 -41 13
7 25 1 51 -26 19 -20 64 -53 101 -75 36 -21 82 -57 101 -79 31 -36 38 -40 82
-40 44 0 51 4 86 43 20 24 64 57 96 75 67 36 138 105 147 145 3 15 10 27 15
27 10 0 9 -26 -2 -36 -4 -4 -2 -13 4 -20 9 -10 19 -6 50 23 48 45 89 125 89
176 0 24 4 36 11 32 6 -4 8 -22 4 -44 -7 -41 15 -105 39 -114 18 -7 19 -5 36
48 7 22 35 79 62 127 27 48 58 112 67 143 17 55 18 55 29 30 21 -46 46 -28 53
38 8 72 32 136 80 210 125 194 127 446 4 632 -31 47 -40 69 -43 116 -6 76 0
96 44 153 l37 48 -5 99 c-5 93 -8 105 -51 194 -26 51 -47 101 -47 110 0 21
-58 170 -83 214 -66 114 -213 264 -308 315 -30 16 -55 30 -57 32 -2 1 13 23
32 49 47 61 70 141 64 220 -12 141 -82 223 -259 303 -103 46 -124 52 -180 51
-35 0 -77 -5 -94 -11z m-74 -1053 c25 -9 71 -38 102 -66 l56 -50 40 40 c79 79
181 111 285 91 77 -15 104 -29 156 -82 63 -65 83 -116 89 -233 l6 -100 30 3
c97 11 116 7 146 -26 43 -47 41 -102 -5 -148 -24 -24 -43 -34 -64 -34 -39 0
-43 -7 -32 -55 21 -92 -45 -202 -134 -226 -22 -6 -55 -26 -74 -45 -21 -21 -44
-34 -60 -34 -30 0 -72 35 -72 60 0 26 -54 95 -92 118 -51 32 -107 37 -172 17
-52 -17 -58 -17 -98 0 -32 12 -57 15 -97 10 -45 -6 -61 -14 -101 -51 -26 -25
-54 -59 -61 -77 -20 -51 -48 -77 -85 -77 -23 0 -33 5 -37 19 -5 19 -74 61
-100 61 -25 0 -105 79 -117 116 -7 19 -10 63 -8 97 l3 61 -41 8 c-114 23 -125
176 -15 209 31 9 46 9 70 -1 52 -21 58 -12 63 97 3 84 8 105 31 148 52 93 112
142 204 165 47 11 124 5 184 -15z m247 -1037 c26 -12 53 -23 60 -24 14 -3 16
12 2 21 -5 3 -10 11 -10 17 0 6 9 3 20 -7 12 -11 18 -25 15 -34 -3 -8 -3 -12
1 -9 3 4 15 -2 27 -13 11 -10 29 -19 39 -19 36 0 50 -89 24 -152 -15 -36 -50
-58 -92 -58 -24 0 -25 1 -17 53 4 28 7 66 8 82 0 29 -2 30 -55 36 -30 3 -69
11 -87 18 -25 10 -36 10 -55 0 -12 -7 -47 -15 -78 -18 l-55 -6 0 -55 c0 -30 3
-67 8 -82 7 -25 5 -28 -18 -28 -52 0 -90 25 -104 68 -17 51 -7 132 17 139 9 2
19 3 22 1 3 -2 19 9 35 25 17 15 37 26 45 25 26 -3 107 40 132 71 l23 29 23
-29 c13 -16 45 -39 70 -51z"/>
</g>
</svg>
