<?xml version="1.0" standalone="no"?>
<!DOCTYPE svg PUBLIC "-//W3C//DTD SVG 20010904//EN"
 "http://www.w3.org/TR/2001/REC-SVG-20010904/DTD/svg10.dtd">
<svg version="1.0" xmlns="http://www.w3.org/2000/svg"
 width="184.000000pt" height="185.000000pt" viewBox="0 0 184.000000 185.000000"
 preserveAspectRatio="xMidYMid meet">
<metadata>
Created by potrace 1.16, written by Peter Selinger 2001-2019
</metadata>
<g transform="translate(0.000000,185.000000) scale(0.100000,-0.100000)"
fill="#000000" stroke="none">
<path d="M835 1736 c-66 -28 -77 -36 -103 -70 -30 -39 -30 -117 -1 -166 12
-19 17 -36 11 -38 -6 -2 -31 -17 -57 -34 -62 -41 -127 -130 -149 -204 -10 -33
-24 -75 -31 -94 -25 -63 -28 -98 -10 -132 37 -72 37 -88 3 -158 -24 -49 -33
-82 -36 -135 -3 -66 -1 -75 37 -150 23 -44 41 -93 41 -110 1 -27 2 -28 14 -13
15 20 26 14 26 -13 0 -10 17 -50 38 -90 l37 -72 11 39 11 39 12 -36 c6 -20 23
-47 38 -60 14 -13 23 -18 19 -11 -13 21 5 13 25 -13 11 -13 37 -34 58 -46 22
-12 49 -39 61 -61 l23 -41 12 30 c7 16 27 40 44 54 18 13 49 39 71 57 26 22
40 28 42 20 3 -7 18 11 35 40 l31 53 12 -33 12 -33 13 35 c8 19 25 57 39 84
14 27 26 56 26 65 0 11 3 10 15 -5 14 -18 14 -18 15 6 0 14 19 63 42 109 36
73 42 92 41 148 0 52 -7 76 -32 125 -36 71 -39 110 -10 158 25 41 21 109 -10
168 -11 20 -25 55 -31 77 -7 22 -23 58 -35 80 -26 46 -111 129 -149 146 l-25
12 25 36 c32 47 33 115 1 162 -26 40 -137 99 -182 98 -16 -1 -52 -11 -80 -23z
m8 -477 c12 -6 32 -21 44 -32 l22 -20 31 26 c106 90 279 -4 257 -139 -5 -32
-5 -33 18 -22 29 13 69 -9 80 -42 9 -28 -19 -70 -46 -70 -18 0 -20 -4 -15 -25
10 -41 -18 -92 -61 -112 -21 -10 -42 -24 -46 -30 -16 -25 -46 -13 -74 29 -32
49 -78 68 -117 50 -18 -8 -33 -8 -54 0 -43 17 -88 -5 -113 -53 -15 -30 -25
-39 -44 -39 -14 0 -25 5 -25 10 0 6 -18 17 -39 26 -49 20 -71 51 -71 104 0 32
-4 40 -18 40 -27 0 -42 20 -42 57 0 43 39 71 74 55 23 -10 24 -9 24 37 0 72
38 130 102 154 26 10 91 7 113 -4z m117 -500 c6 -1 14 -2 20 -3 5 0 15 -7 22
-13 6 -7 18 -13 25 -13 14 0 33 -31 33 -56 0 -24 -39 -64 -63 -64 -17 0 -19 5
-13 40 6 36 4 40 -15 40 -11 0 -28 4 -37 9 -11 6 -32 5 -56 -2 -36 -11 -37
-14 -34 -50 3 -35 2 -38 -21 -35 -13 2 -33 15 -43 29 -24 32 -15 77 17 89 13
5 26 13 29 19 4 6 12 8 19 6 7 -3 25 5 41 18 28 23 30 23 48 5 10 -10 23 -19
28 -19z"/>
</g>
</svg>
